<?xml version="1.0" encoding="UTF-8"?>
<svg id="Layer_1" xmlns="http://www.w3.org/2000/svg" version="1.1" viewBox="0 0 3183.9 595.2">
  <!-- Generator: Adobe Illustrator 29.2.1, SVG Export Plug-In . SVG Version: 2.1.0 Build 116)  -->
  <defs>
    <style>
      .st0 {
        fill: #1847e8;
      }
    </style>
  </defs>
  <g>
    <path class="st0" d="M614.9,215.3v27c0,69.9,0,99.4-1.4,107.1-2,.3-6.7.7-12.7.7s-11.2-.3-12.5-.9c-2.2-1.8-14.3-13.4-31.4-30.5-20.7-20.8-35-35.1-59.2-59.4-12.5-12.5-27.6-27.5-47.4-47.4-21.3-21.4-42.2-42.2-47.5-47.6-42-42.6-63.9-63.6-73-70.4-12.6-9.3-31.8-19.3-46.9-24.2-17.1-5.8-35-8.7-53.1-8.7-41.4,0-80.9,15.1-111.4,42.3-40.4,36.3-60.2,86-55.8,139.7,1.2,14.5,5.1,32.6,9.2,43.9,11.2,30,32.3,58.1,57.7,77.1,18.7,14,41.4,24.1,67.5,30,7,1.6,19.3,2.5,33.3,2.5s22.3-.3,31.7-2.4c32.4-7.3,56.5-19.5,80.4-40.4,6.5-5.6,7.1-5.6,7.9-5.6h.4c2.5.9,13.7,12.3,27.9,26.7,4.6,4.7,13,13.1,14,16.1-.5,1-2.2,3.1-5.4,6.3-5,5.1-17.1,22.4-69.5,102.9-35.8,54.9-58.2,88.9-62.6,94.9-.4,0-.7.1-1,.1-2.6-.5-15-9.4-22.5-14.8-12-8.7-20.3-15.3-22.6-17.4v-.4c1.1-2.2,6.2-11.7,29.2-46.8l29.8-45.9,10.5-16.1-18.3,3.1-4.6.8h-.2c-1.7.3-11.3.8-26.8.8-24.9,0-37.9-1.8-60.7-8-46.9-12.8-91.8-43-120.1-80.6C17.9,330.4,2.3,287.4.2,238.4-3.3,161,33.4,85.3,95.9,41.3,130.7,16.9,169.6,2.8,211.8-.4c6-.4,12.1-.7,18.1-.7,50.1,0,99.8,16.6,139.7,46.9,12.6,9.6,21.3,18,72.3,69.2,22.6,22.8,58.9,59.1,69.1,69.2,3.4,3.4,7.9,7.9,12.1,12.1l6.7,6.7,8.9,8.9,13.2,13.4.2-19.3.5-49.7c.2-27.3.5-43.4,1.4-48.1,3.1-.4,12.8-.8,29.9-.8s25.9.4,29.4.8c1.2,7.9,1.2,37.4,1.2,107h.2Z"/>
    <path class="st0" d="M858.6,228.8c0,41.8-10.6,81.1-31.3,116.9-8.9,15.2-17.7,27-31.2,41.7-11.7,12.8-16.7,20.1-75.5,110.4-35.5,54.8-60.6,92.8-64,97.4h-1c-2.1-.4-13.3-8.4-22.3-14.8-12-8.7-20.3-15.3-22.6-17.4v-.4c1.2-2.6,6.7-12.3,29.2-46.9l29.9-46,9.5-14.5-16.7,1.6-10.1.9c-5.2.4-16.8.8-25.6.8-42.7-.4-82.4-11.7-118.2-33.9-22.2-13.6-28.3-19-72.6-63.4-5.5-5.5-12.2-12.2-19.1-19.1-10-10-20.2-20.3-27.4-27.4-8.7-8.8-19.3-19.4-27.2-27.3l-7.6-7.6c-7.1-7.2-16.8-16.9-21.1-21-4.5-4.6-9.5-9.6-11-11.3l-3.1-3.5-13.7-15.5v71.3c0,34.2-.5,45.5-.7,49.3-4.4.9-17.3.9-30.1.9s-25.4,0-29.9-.8c-1.4-25-1.4-219.9,0-240.6,1-.4,3.7-1,12.1-1s11.1.4,12.1.8c4.2,3.5,26.3,24.8,55.6,54.1,31.3,31.5,69.6,69.7,87.2,87.3,9.2,9.3,19,19,27.2,27.3,8.2,8.3,14.8,14.9,18.1,18.1,61.9,62.4,68.1,68.2,84.6,78,16.3,9.8,31.6,15.9,52.4,20.7,8.4,2.1,25.8,3,38.4,3s13.1-.1,18.6-.9c44.2-6,80.8-26.9,109.1-61.6,23.8-29.5,36.5-65.5,36.7-104.1,0-22.9-3.2-41.3-11.7-63.6-13.5-35.4-43.2-68.4-77.6-86.2-15.5-8-26.9-12.2-43.7-16-8.1-1.8-21.7-3-36.3-3s-24.8.9-31.8,2.5c-32.3,7.3-60.9,21.9-80.6,41.2-4.7,4.7-6,4.7-6.7,4.7h-.7c-2.7-1.4-13.6-12.6-33.1-32.5-7.2-7.5-8-8.8-7.9-10.6,2.4-4.1,17-17.8,38.5-31.6,26.8-17,59.2-29,91.5-33.6,5.5-.8,16-1.3,28.7-1.3,18.3,0,35.9.9,42.9,2.2,33.4,6.4,63.9,18.9,90.1,36.8,26.9,18.5,46.6,38.8,64,65.9,23.7,37.2,35.7,78.9,35.7,123.7h0Z"/>
  </g>
  <g>
    <path class="st0" d="M1049.7,355.4v-113.4h-33.1v-33.1h33.8v-45.5h37.2v45.5h51.4v33.1h-51.4v110h48.6v34.5h-53.8c-23.4,0-32.8-13.1-32.8-31Z"/>
    <path class="st0" d="M1164.9,297.5c0-52.8,36.9-91.7,90.7-91.7s89.3,31.7,89.3,91.7v13.8h-141.4c4.8,26.5,24.5,43.8,52.8,43.8s34.8-9,42.4-23.4h41.7c-11.4,36.5-43.4,57.9-84.5,57.9s-91-39-91-92.1ZM1305.9,279.6c-6.2-28.3-27.6-40-50-40s-45.5,15.5-51.7,40h101.7Z"/>
    <path class="st0" d="M1461.1,389.6c-54.5,0-92.4-39-92.4-92.1s37.9-91.7,92.4-91.7,82.1,29,88.3,73.8h-39.7c-4.5-25.2-24.8-38.3-48.6-38.3s-54.1,22.8-54.1,56.2,23.8,56.2,54.1,56.2,41.4-12.4,47.6-35.5h40c-7.6,43.4-41.4,71.4-87.6,71.4Z"/>
    <path class="st0" d="M1590.3,145.1h37.9v87.9c7.9-13.8,24.5-27.2,52.4-27.2,43.8,0,66.9,32.1,66.9,67.9v112.7h-37.9v-101.4c0-23.4-12.8-43.1-40.3-43.1s-41,20.7-41,43.1v101.4h-37.9v-241.4Z"/>
    <path class="st0" d="M1802.7,208.9h37.9v24.1c7.9-13.8,24.5-27.2,52.4-27.2,43.8,0,66.9,32.1,66.9,67.9v112.7h-37.9v-101.4c0-23.4-12.8-43.1-40.3-43.1s-41,20.7-41,43.1v101.4h-37.9v-177.6Z"/>
    <path class="st0" d="M1997.9,297.5c0-52.8,39-91.7,93.4-91.7s93.4,39,93.4,91.7-39,92.1-93.4,92.1-93.4-39-93.4-92.1ZM2146.5,297.5c0-33.4-23.8-56.2-55.2-56.2s-55.2,22.8-55.2,56.2,23.8,56.2,55.2,56.2,55.2-22.4,55.2-56.2Z"/>
    <path class="st0" d="M2226.1,145.1h37.9v241.4h-37.9v-241.4Z"/>
    <path class="st0" d="M2301.6,297.5c0-52.8,39-91.7,93.4-91.7s93.4,39,93.4,91.7-39,92.1-93.4,92.1-93.4-39-93.4-92.1ZM2450.2,297.5c0-33.4-23.8-56.2-55.2-56.2s-55.2,22.8-55.2,56.2,23.8,56.2,55.2,56.2,55.2-22.4,55.2-56.2Z"/>
    <path class="st0" d="M2550.2,422.3h104.5v-55.2c-13.8,12.4-32.1,19.7-54.1,19.7-50.3,0-87.9-37.6-87.9-90.3s37.6-90.7,87.9-90.7,40.3,7.2,54.1,19.7v-16.5h37.9v211.7c0,25.5-14.8,37.9-40.3,37.9h-102.1v-36.2ZM2654.7,296.5c0-35.5-23.4-55.5-51.7-55.5s-52.1,20-52.1,55.5,24.5,55.2,52.1,55.2,51.7-20.3,51.7-55.2Z"/>
    <path class="st0" d="M2740.9,160.6c0-14.8,11.4-25.2,25.9-25.2s25.5,10.3,25.5,25.2-11.4,25.2-25.5,25.2-25.9-10-25.9-25.2ZM2748.1,208.9h37.9v177.6h-37.9v-177.6Z"/>
    <path class="st0" d="M2825,297.5c0-52.8,36.9-91.7,90.7-91.7s89.3,31.7,89.3,91.7v13.8h-141.4c4.8,26.5,24.5,43.8,52.8,43.8s34.8-9,42.4-23.4h41.7c-11.4,36.5-43.4,57.9-84.5,57.9s-91-39-91-92.1ZM2966,279.6c-6.2-28.3-27.6-40-50-40s-45.5,15.5-51.7,40h101.7Z"/>
    <path class="st0" d="M3032.2,327.2h38.3c.7,17.9,15.5,27.9,38.3,27.9s37.2-7.9,37.2-20.7-5.5-17.2-24.5-19.3l-30.3-4.1c-30.7-3.8-52.8-19.7-52.8-51s25.5-54.1,69.3-54.1,73.1,21.7,72.8,59h-36.5c-.7-15.5-14.5-26.2-36.5-26.2s-32.1,9.3-32.1,20,9,15.9,21.7,17.6l33.4,4.5c36.2,4.5,53.4,24.5,53.4,52.8s-27.6,56.2-75.2,56.2-75.5-23.8-76.5-62.4Z"/>
  </g>
</svg>